<svg
    id="esGzJiaKySZ1"
    xmlns="http://www.w3.org/2000/svg"
    xmlns:xlink="http://www.w3.org/1999/xlink"
    shape-rendering="geometricPrecision"
    text-rendering="geometricPrecision">
  <g transform="translate(-.47114 0.23557)">
    <text dx="0"
          dy="0"
          font-family="&quot;sans-serif&quot;"
          font-size="10.5833"
          font-weight="400"
          transform="translate(-36.738728 49.099422)"
          stroke-width="0.264583">
      <tspan font-family="&quot;sans-serif&quot;"
             font-size="10.5833" font-weight="400" font-style="normal" stroke-width="0.264583"/>
      </text>
      <text dx="0"
            dy="0"
            font-family="&quot;sans-serif&quot;"
            font-size="10.5833"
            font-weight="400"
            transform="translate(60.258381 126.35375)"
            stroke-width="0.264583">
        <tspan 
            x="0"
            y="0"
            font-family="&quot;sans-serif&quot;"
            font-size="10.5833"
            font-weight="400"
            font-style="normal"
            stroke-width="0.264583"/>
        </text>
        <text dx="0"
            dy="0"
            font-family="&quot;FreeSans&quot;"
            font-size="34.0608"
            font-weight="400"
            transform="matrix(.788805 0 0 1.26774 24.668895 63.46663)"
            stroke-width="0.354799">
          <tspan 
              x="0"
              y="0"
              font-family="&quot;Waree&quot;"
              font-size="34.0608"
              font-weight="700"
              font-style="normal"
              stroke-width="0.354799"
              ><![CDATA[Avian ]]></tspan>
          </text>
          <text dx="0"
              dy="0"
              font-family="&quot;FreeSans&quot;"
              font-size="34.0608"
              font-weight="400"
              transform="matrix(.788805 0 0 1.26774 110.217206 64.25359)"
              stroke-width="0.354799">
          <tspan 
              x="0"
              y="0"
              font-family="&quot;Waree&quot;"
              font-size="34.0608"
              font-weight="700"
              font-style="normal"
              stroke-width="0.354799">
            <![CDATA[Tim]]>
          </tspan>
          </text>
          <text dx="0"
                dy="0"
                font-family="&quot;FreeSans&quot;"
                font-size="33.704"
                font-weight="400"
                transform="matrix(.783386 0 0 1.276509 109.331943 57.112929)"
                stroke-width="0.351082"
                ><tspan x="0"
                        y="0"
                        font-family="&quot;Waree&quot;"
                        font-size="33.704"
                        font-weight="700"
                        font-style="normal"
                        stroke-width="0.351082"
                        /><tspan x="0"
                                 y="30.58696"
                                 font-family="&quot;Waree&quot;"
                                 font-size="33.704"
                                 font-weight="700"
                                 font-style="normal"
                                 stroke-width="0.351082"
                                 ><![CDATA[mbl]]>
          </tspan>
          </text>
          <text dx="0"
                dy="0"
                font-family="&quot;FreeSans&quot;"
                font-size="32.7317"
                font-weight="400"
                transform="matrix(-.790877 0 0 1.264419 182.440107 64.278977)"
                stroke-width="0.340952">
            <tspan x="0"
                   y="0"
                   font-family="&quot;Waree&quot;"
                   font-size="32.7317"
                   font-weight="700"
                   font-style="normal"
                   stroke-width="0.340952"
                   ><![CDATA[e]]></tspan>
          </text>
          <text dx="0"
                dy="0"
                font-family="&quot;FreeSans&quot;"
                font-size="33.0426"
                font-weight="400"
                transform="matrix(-.792664 0 0 1.261569 183.116774 96.348752)"
                stroke-width="0.344192">
            <tspan 
              x="0"
              y="0"
              font-family="&quot;Waree&quot;"
              font-size="33.0426"
              font-weight="700"
              font-style="normal"
              stroke-width="0.344192"><![CDATA[e]]>
          </tspan>
          </text>
          <text 
            dx="0"
            dy="0"
            font-family="&quot;Waree&quot;"
            font-size="32.7433"
            font-weight="400"
            transform="matrix(.787793 0 0 1.269369 40.516858 58.923487)"
            stroke-width="0.341074">
            <tspan x="0" y="0" font-family="&quot;Waree&quot;" font-size="32.7433" font-weight="700" font-style="normal" stroke-width="0.341074"/>
            <tspan x="0" y="29.715126" font-family="&quot;Waree&quot;" font-size="32.7433" font-weight="700" font-style="normal" stroke-width="0.341074">
              <![CDATA[Ens]]>
          </tspan>
          </text>
          <text 
            dx="0"
            dy="0"
            font-family="&quot;FreeSans&quot;"
            font-size="32.5384"
            font-weight="400"
            transform="matrix(-.786205 0 0 1.271932 109.249396 96.55407)"
            stroke-width="0.338939">
            <tspan x="0" y="0" font-family="&quot;Waree&quot;" font-size="32.5384" font-weight="700" font-style="normal" stroke-width="0.338939"><![CDATA[e]]>
          </tspan>
          </text>

          <g transform="matrix(.275826 0 0 0.264583 66.620659 100.848152)"><g>
              <path d="M353.581,126.772c-11.434,0-20.735,9.302-20.735,20.735s9.302,20.735,20.735,20.735s20.735-9.302,20.735-20.735-9.301-20.735-20.735-20.735Zm0,26.469c-3.162,0-5.735-2.573-5.735-5.735s2.573-5.735,5.735-5.735s5.735,2.573,5.735,5.735-2.573,5.735-5.735,5.735Z"/>
              <path d="M464.429,144.636c-1.16-2.803-3.896-4.63-6.929-4.63h-33.548c-13.944-34.977-39.647-64.806-73.701-83.635-.016-.009-.033-.015-.049-.024-.153-.083-.31-.157-.468-.229-.073-.033-.144-.07-.218-.101-.138-.058-.279-.106-.42-.155-.098-.034-.195-.073-.294-.103-.106-.032-.215-.056-.322-.083-.134-.034-.267-.071-.401-.098-.072-.014-.145-.022-.217-.034-.169-.028-.338-.057-.508-.073-.05-.005-.1-.005-.15-.008-.19-.015-.379-.027-.569-.027-.061,0-.122.006-.184.008-.176.004-.352.009-.527.025-.111.01-.22.03-.33.046-.124.017-.248.03-.37.053-.159.03-.316.072-.473.112-.073.019-.147.032-.219.053-.173.05-.342.111-.511.174-.056.021-.114.037-.169.059-.155.061-.305.134-.456.206-.07.033-.141.062-.21.097-.122.063-.24.135-.359.205-.095.056-.192.108-.285.169-.089.058-.175.124-.262.186-.118.084-.237.166-.35.257-.067.054-.131.115-.198.171-.125.108-.25.216-.368.333-.015.015-.031.027-.046.041L2.197,396.761c-2.929,2.929-2.929,7.678,0,10.606c1.465,1.464,3.385,2.197,5.304,2.197s3.839-.732,5.304-2.197L130.576,289.594c2.14,3.378,4.385,6.669,6.744,9.859L40.012,396.761c-2.929,2.929-2.929,7.678,0,10.606c1.465,1.464,3.385,2.197,5.304,2.197s3.839-.732,5.304-2.197l96.22-96.22c31.027,34.812,75.785,55.419,123.505,55.419c91.188,0,165.374-74.187,165.374-165.374c0-15.855-2.294-31.377-6.606-46.186h10.282l-.431.432c-2.93,2.929-2.93,7.677-.001,10.606c1.465,1.465,3.384,2.197,5.304,2.197c1.919,0,3.839-.732,5.303-2.197l13.235-13.235c2.143-2.144,2.785-5.37,1.624-8.173ZM270.343,351.566c-45.964,0-88.917-21.018-117.199-56.154-.031-.039-.064-.078-.096-.116-4.198-5.227-8.071-10.765-11.582-16.593l33.127-33.128c17.135,36.961,54.259,61.076,95.75,61.076c35.641,0,68.63-17.798,88.244-47.61c2.276-3.46,1.317-8.111-2.144-10.388-3.459-2.276-8.11-1.317-10.388,2.143-16.831,25.582-45.136,40.855-75.713,40.855-37.474,0-70.793-22.927-84.325-57.502L347.852,72.313c45.084,27.162,72.865,76.03,72.865,128.879c0,82.917-67.458,150.374-150.374,150.374Z"/>
          </g>
          </g>
          <g transform="matrix(.197561-.184638 0.192483 0.189508-5.833019 151.365799)">
            <path d="M204.647,118.96L184.592,17.11C182.703,7.516,173.563,0,163.783,0h-56.052C97.953,0,88.813,7.516,86.922,17.11L46.102,224.425c-.002.012-.004.023-.006.035L32.367,294.185c-.998,5.067.205,10.132,3.3,13.895C38.76,311.842,43.496,314,48.66,314h174.195c5.163,0,9.898-2.158,12.993-5.92c3.095-3.763,4.298-8.827,3.301-13.896l-13.732-69.741c-.001-.002-.001-.004-.001-.004l-16.584-84.225M100.659,19.816c.6-3.044,3.971-5.816,7.072-5.816h56.052c3.103,0,6.473,2.771,7.072,5.815l23.525893,117.677337L164,191.933c-6.17-2.645-13.121-4.627-21.242-5.363v-14.92h10.96c3.866,0,7-3.134,7-7s-3.134-7-7-7h-10.96v-41.211h10.96c3.866,0,7-3.134,7-7s-3.134-7-7-7h-10.96v-41.21h10.96c3.866,0,7-3.134,7-7s-3.134-7-7-7h-10.96v-12.291c0-3.866-3.134-7-7-7s-7,3.134-7,7v12.291h-10.96c-3.866,0-7,3.134-7,7s3.134,7,7,7h10.96v41.21h-10.96c-3.866,0-7,3.134-7,7s3.134,7,7,7h10.96v41.211h-10.96c-3.866,0-7,3.134-7,7s3.134,7,7,7h10.96v14.92c-19.447,1.763-32.189,10.688-43.564,18.666-7.894,5.536-14.975,10.493-23.52,12.573ZM225.036,299.188c-.432.523-1.206.813-2.181.813h-174.195c-.976,0-1.75-.289-2.181-.814-.432-.524-.565-1.34-.377-2.297l12.675-64.372c14.147-1.593,24.455-8.807,34.455-15.82c12.059-8.457,23.448-16.444,42.525-16.444s30.466,7.987,42.524,16.444c10.001,7.014,20.308,14.228,34.456,15.82l12.675,64.371c.19.957.056,1.773-.376,2.299Zm-15.194-81.379c-9.316662-1.211328-41.851272-25.004122-45.390688-25.593565-1.829132-.304618,31.860875-55.750613,29.869933-54.781214M244.13,38.775l20.136,11.216Z"/>
          </g>
          <path d="M160.22787,85.680775c0,34.049875,0,34.049875,0,34.049875v.13198" fill="none" stroke="#000" stroke-width="4.52212"/>
          <rect width="191.189"
                height="190.948"
                rx="0"
                ry="0"
                transform="translate(9.03817 23.8206)"
                fill="none"
                fill-rule="evenodd"
                stroke="#000"
                stroke-width="3.32925"
                stroke-linejoin="round"
                />
          <path d="M148.08218,119.83208c0,9.94627,0,9.94627,0,9.94627v.0387"
                fill="none"
                stroke="#000"
                stroke-width="3.17255"
                stroke-linecap="round"
                />
          <path d="M148.08218,119.83208c0,9.94627,0,9.94627,0,9.94627v.0387"
                transform="matrix(-1 0 0 1.757709 301.788584-103.356032)"
                fill="none"
                stroke="#000"
                stroke-width="3.17255"
                stroke-linecap="round"/>
          <path d="M160.22787,85.680775c0,34.049875,0,34.049875,0,34.049875v.13198"
                fill="none"
                stroke="#000"
                stroke-width="4.52212"
                />
  </g>
  <path d=""
        fill="none"
        stroke="#3f5787"
        stroke-width="0.594"
        />
  <g id="esGzJiaKySZ35"
     transform="matrix(.990268-.139173 0.139173 0.990268-20.527576 13.489246)"
     >
    <line x1="-2.594366"
          y1="-5.241679"
          x2="2.594366"
          y2="5.241678"
          transform="matrix(.87755 0 0 0.919192 49.111059 117.653241)"
          fill="none"
          stroke="#000"
          stroke-width="3.5"
          stroke-linecap="round"/>
    <line x1="-5.188732"
          y1="1.323656"
          x2="5.188732"
          y2="-1.323656"
          transform="matrix(.877551 0 0 1 51.811317 111.405583)"
          fill="none"
          stroke="#000"
          stroke-width="3.5"
          stroke-linecap="round"
          />
    <line x1="5.188732"
          y1="18.478241"
          x2="-5.188732"
          y2="-18.478241"
          transform="matrix(.836735 0 0 0.885383 59.54147 139.361203)"
          fill="none"
          stroke="#000"
          stroke-width="4"
          stroke-linecap="round"
          />
    <line x1="-3.123828"
          y1="0.794194"
          x2="3.123829"
          y2="-0.794193"
          transform="translate(55.146931 121.88894)"
          fill="none"
          stroke="#000"
          stroke-width="3.5"
          stroke-linecap="round"
          />
    <line x1="-2.594366"
          y1="-5.241679"
          x2="2.594366"
          y2="5.241678"
          transform="matrix(.883617 0.32161-.306033 0.840819 57.582458 115.323605)"
          fill="none"
          stroke="#000"
          stroke-width="3.5"
          stroke-linecap="round"
          />
    <line x1="-0.741247"
          y1="-2.329635"
          x2="0.741248"
          y2="2.329635"
          transform="translate(51.07007 108.705325)"
          fill="none"
          stroke="#000"
          stroke-width="2.97"
          stroke-linecap="round"
          />
  </g>
</svg>
